<svg width="713" height="602" viewBox="0 0 713 602" fill="none" xmlns="http://www.w3.org/2000/svg">
<path d="M208.567 480.142C217.984 472.591 207.54 489.093 178.263 520.697L160.793 540.627C162.469 536.319 157.94 531.123 208.571 480.152L208.567 480.142Z" fill="#FF3D00" fill-opacity="0.1"/>
<path d="M336.969 337.278C328.215 349.455 319.484 357.224 308.502 368.948L309.357 364.577C322.844 348.604 332.291 341.021 336.965 337.268L336.969 337.278Z" fill="#FF3D00" fill-opacity="0.1"/>
<path d="M610.38 35.9489L616.758 27.8779C610.38 35.9489 607.973 40.0877 608.748 40.1992C594.444 56.1183 578.659 71.7369 584.275 63.5289C595.339 51.7114 596.857 51.9667 610.386 35.9361L610.38 35.9489Z" fill="#FF3D00" fill-opacity="0.1"/>
<path d="M337.988 387.347C381.587 339.817 443.502 267.989 483.211 219.909L556.11 140.746C522.735 180.814 545.585 161.731 549.408 162.359C565.202 146.737 570.947 134.007 589.012 118.781C578.706 130.726 560.478 150.528 554.101 158.599C575.408 139.281 630.954 75.5206 620.374 96.557L587.027 136.582C596.116 142.563 663.052 85.1472 635.666 130.74C673.653 91.3962 665.504 108.274 690.767 85.0396L669.323 108.893C707.28 69.5811 664.371 121.727 670.653 118.155L651.551 142.335C616.624 182.17 630.386 157.106 578.795 216.951C551.698 253.436 633.971 166.78 598.948 211.114C592.475 223.684 617.059 195.839 630.446 184.356C652.649 160.63 651.091 160.411 676.428 132.707C696.723 122.323 582.597 249.311 598.123 242.767C616.37 222.957 666.096 176.397 688.506 143.658L664.017 167.004L687.075 138.907C689.37 139.283 690.024 143.913 714.602 116.081C635.236 207.801 802.066 39.2478 673.865 173.112C691.446 148.667 686.685 152.504 651.925 187.772C650.049 201.081 622.052 241.986 625.775 247.103L663.725 207.805C628.071 247.479 606.547 275.815 599.284 288.29C608.015 280.52 606.293 284.877 623.772 264.944C645.944 241.251 628.956 243.076 696.113 176.652C686.322 197.784 659.056 238.859 610.547 299.165C599.579 306.484 607.613 294.143 556.983 345.114C500.394 390.527 528.639 340.572 461.699 397.979C486.293 370.131 493.525 357.689 519.668 330.064C536.347 310.038 515.061 329.328 549.988 289.493C507.536 323.553 520.588 293.912 518.497 284.544C456.626 356.314 473.543 327.243 445.877 354.625C472.115 322.502 457.176 333.753 454.146 333.229C443.039 345.105 437.593 348.724 420.109 368.67C429.556 361.087 416.058 377.085 411.198 385.411C363.704 436.792 409.791 380.641 409.939 376.081L436.804 348.628C434.629 343.734 510.157 251.402 461.979 298.186L419.82 350.463C395.427 369.31 452.004 296.609 393.521 355.338C379.865 375.899 419.293 341.302 358.251 408.721C325.762 444.384 324.346 439.618 336.311 423.38C390.587 350.315 253.713 491.875 337.995 387.366L337.988 387.347Z" fill="#64308E" fill-opacity="0.2"/>
<path d="M240.85 512.51C249.285 513.861 331.06 417.98 328.41 431.178C295.167 466.701 270.438 499.083 269.525 503.529C290.07 484.073 278.882 500.431 281.22 500.749C275.559 509.006 235.955 552.584 232.86 552.116C293.378 475.515 183.535 585.055 240.841 512.513L240.85 512.51Z" fill="#FF3D00" fill-opacity="0.1"/>
<path d="M416.252 309.048C424.03 305.76 347.203 388.797 369.248 369.635C328.126 412.958 366.968 369.243 363.118 368.657L386.884 345.138L416.258 309.036L416.252 309.048Z" fill="#FF3D00" fill-opacity="0.1"/>
<path d="M335.835 441.441C342.101 437.885 326.819 462.684 284.037 510.299C280.825 514.359 258.653 538.052 267.342 530.341C279.277 514.136 279.539 505.071 335.835 441.441Z" fill="#FF3D00" fill-opacity="0.1"/>
<path d="M499.54 245.138C508.198 237.46 509.71 237.728 512.033 238.062C503.36 245.757 483.604 265.308 499.54 245.138Z" fill="#FF3D00" fill-opacity="0.1"/>
<path d="M418.149 354.728C449.879 318.936 427.566 347.176 428.34 347.288L415.616 363.397C406.989 371.044 401.435 374.776 418.149 354.728Z" fill="#FF3D00" fill-opacity="0.1"/>
<path d="M337.308 473.448C326.879 489.934 293.875 516.411 291.299 525.139L285.104 528.627L334.251 472.967L337.321 473.454L337.308 473.448Z" fill="#FF3D00" fill-opacity="0.1"/>
<path d="M296.723 525.928C308.578 514.206 313.28 510.443 304.48 522.669L285.49 542.335C277.594 550.15 298.245 526.193 296.723 525.928Z" fill="#FF3D00" fill-opacity="0.1"/>
<path d="M406.292 398.166C418.889 386.587 393.537 414.308 383.993 426.39C368.958 442.139 400.769 401.866 406.292 398.166Z" fill="#FF3D00" fill-opacity="0.1"/>
<path d="M718.68 75.9012C677.543 119.24 699.042 90.9243 684.902 102.267C699.042 90.9243 721.988 67.3427 718.68 75.9012Z" fill="#FF3D00" fill-opacity="0.1"/>
<path d="M155.6 503.482C168.324 487.372 155.742 498.934 143.872 510.673L130.343 526.703L155.59 503.485L155.6 503.482Z" fill="#FF3D00" fill-opacity="0.1"/>
<path d="M150.087 538.881C198.361 487.599 173.876 510.954 206.522 470.727C212.996 458.157 172.683 497.157 172.05 492.499L144.396 519.856C131.561 540.48 122.532 561.749 150.087 538.881Z" fill="#FF3D00" fill-opacity="0.1"/>
<path d="M386.175 281.543C404.518 257.235 368.175 292.303 365.88 291.927C362.541 300.518 363.973 305.269 363.114 309.63C374.21 297.78 379.763 289.637 386.172 281.534L386.175 281.543Z" fill="#FF3D00" fill-opacity="0.1"/>
<path d="M103.86 508.869C109.216 509.736 77.2633 554.557 140.476 492.024C148.529 479.645 162.775 463.8 169.248 451.23C233.362 384.277 165.055 464.192 168.92 464.762C180.081 448.446 209.283 421.311 215.565 417.739C202.729 438.364 214.321 435.707 221.235 436.793C245.708 413.464 216.066 458.645 275.512 391.021C283.346 387.681 237.339 439.349 226.121 455.74C303.49 381.847 106.654 609.159 199.085 519.475C162.622 559.061 171.153 555.914 169.539 560.157C170.193 564.787 173.009 574.337 238.898 498.586C282.593 446.557 205.119 524.952 247.22 472.749C314.874 388.204 280.267 446.214 341.269 378.831C329.476 390.489 382.594 330.896 361.256 350.247C393.544 323.584 426.422 274.324 465.915 235.261C497.109 190.312 497.868 190.439 572.501 102.515C556.802 113.638 504.459 173.342 474.37 204.88C440.481 235.761 508.026 155.74 489.113 170.914C585.704 68.3227 556.751 86.3853 551.401 85.5055C551.633 76.4723 466.664 176.374 470.077 163.314C512.968 111.206 534.812 101.045 580.152 44.7407L558.875 64.0268C520.894 103.358 472.605 154.657 444.951 182.014C443.417 181.775 441.106 181.415 455.379 165.528C472.741 150.122 507.624 110.314 525.951 86.0216C510.182 101.624 506.202 105.56 491.176 121.306C393.492 237.314 481.164 124.153 419.426 187C327.938 272.206 534.548 51.0935 482.69 92.7018C396.971 192.473 431.454 138.972 395.115 174.05C395.211 169.551 419.073 141.534 445.315 109.419C435.043 119.588 428.365 123.591 410.99 142.318C294.084 274.229 187.884 401.988 96.6101 516.237C99.0469 513.905 101.353 511.652 103.86 508.869Z" fill="#64308E" fill-opacity="0.2"/>
</svg>
